# xmcd
#
# Track frame offsets:
#	150
#	21381
#	56504
#	72243
#	84740
#	106696
#	122957
#	136539
#	165579
#	182510
#	202823
#	243521
#	269893
#	293292
#	306709
# Disc length: 4441 seconds
# Revision: 2
# Processed by: cddbd v1.5.2PL0 Copyright (c) Steve Scherf et al.
#
# Submitted via: libkcddb 0.31
#
DISCID=d411570f
DTITLE=Muddy Waters Blues Band - The Warsaw Session - Jazz Jamboree 76
DYEAR=1976
DGENRE=Blues
TTITLE0=Junior Shuffle
TTITLE1=Floyd's Gitar Blues
TTITLE2=G.P.S Boogie
TTITLE3=Baby Plese Don't Go
TTITLE4=Soon Forgotten
TTITLE5=Corinne Corinna
TTITLE6=Hoochie Coochie Man
TTITLE7=Howlin' Wolf
TTITLE8=Blow Wind Blow
TTITLE9=What's A Matter With The Meal
TTITLE10=Kansas City
TTITLE11=Caldonia
TTITLE12=Screamin' And Cryin'
TTITLE13=I Got My Mojo Working
TTITLE14=Gabbage Man
EXTD=YEAR: 1976
EXTT0=
EXTT1=
EXTT2=
EXTT3=
EXTT4=
EXTT5=
EXTT6=
EXTT7=
EXTT8=
EXTT9=
EXTT10=
EXTT11=
EXTT12=
EXTT13=
EXTT14=
PLAYORDER=
